PathFileType	4	(X/Y/Z)	/home/alexbeat/data/kuopio-gait-dataset/01/mocap/calib_static_markers.trc
DataRate	CameraRate	NumFrames	NumMarkers	Units	OrigDataRate	OrigDataStartFrame	OrigNumFrames
100.000000	100.000000	4	70	mm	100.000000	158	211
Frame#	Time	Pelvis1			Pelvis2			Pelvis3			Pelvis4			Torso1			Torso2			Torso3			Torso4			RFemur1			RFemur2			RFemur3			RFemur4			LFemur1			LFemur2			LFemur3			LFemur4			RTibia1			RTibia2			RTibia3			RTibia4			LTibia1			LTibia2			LTibia3			LTibia4			LFoot1			LFoot2			LFoot3			RFoot1			RFoot2			RFoot3			*30			*31			*32			*33			*34			*35			*36			*37			*38			Pelvis_RFemur_score			Pelvis_LFemur_score			RFemur_RTibia_score			RFemur_RTibia_sara			LFemur_LTibia_score			LFemur_LTibia_sara			RKnee			LKnee			RTibia_RFoot_score			LTibia_LFoot_score			USERMO0			USERMO1			USERMO2			USERMO3			USERMO4			USERMO5			USERMO6			USERMO7			USERMO8			USERMO9			USERMO10			USERMO11			USERMO12			USERMO13			USERMO14			USERMO15			USERMO16			USERMO17			USERMO18			USERMO19			USERMO20			
		X1	Y1	Z1	X2	Y2	Z2	X3	Y3	Z3	X4	Y4	Z4	X5	Y5	Z5	X6	Y6	Z6	X7	Y7	Z7	X8	Y8	Z8	X9	Y9	Z9	X10	Y10	Z10	X11	Y11	Z11	X12	Y12	Z12	X13	Y13	Z13	X14	Y14	Z14	X15	Y15	Z15	X16	Y16	Z16	X17	Y17	Z17	X18	Y18	Z18	X19	Y19	Z19	X20	Y20	Z20	X21	Y21	Z21	X22	Y22	Z22	X23	Y23	Z23	X24	Y24	Z24	X25	Y25	Z25	X26	Y26	Z26	X27	Y27	Z27	X28	Y28	Z28	X29	Y29	Z29	X30	Y30	Z30	X31	Y31	Z31	X32	Y32	Z32	X33	Y33	Z33	X34	Y34	Z34	X35	Y35	Z35	X36	Y36	Z36	X37	Y37	Z37	X38	Y38	Z38	X39	Y39	Z39	X40	Y40	Z40	X41	Y41	Z41	X42	Y42	Z42	X43	Y43	Z43	X44	Y44	Z44	X45	Y45	Z45	X46	Y46	Z46	X47	Y47	Z47	X48	Y48	Z48	X49	Y49	Z49	X50	Y50	Z50	X51	Y51	Z51	X52	Y52	Z52	X53	Y53	Z53	X54	Y54	Z54	X55	Y55	Z55	X56	Y56	Z56	X57	Y57	Z57	X58	Y58	Z58	X59	Y59	Z59	X60	Y60	Z60	X61	Y61	Z61	X62	Y62	Z62	X63	Y63	Z63	X64	Y64	Z64	X65	Y65	Z65	X66	Y66	Z66	X67	Y67	Z67	X68	Y68	Z68	X69	Y69	Z69	X70	Y70	Z70	

159	1.58	306.5901489257812	1027.891357421875	345.7490234375001	225.9616394042969	1030.6572265625	348.3936157226562	227.8766784667969	916.6650390625	316.3029174804689	297.5767822265625	917.2137451171875	315.1808166503907	262.461181640625	1423.4296875	505.6474914550782	91.58341217041016	1441.386352539062	450.2112426757813	436.0582580566406	1465.705688476562	444.4696044921876	254.4870300292969	1491.526733398438	372.0802001953126	91.15378570556641	647.4224853515625	398.5433654785157	101.3237915039062	545.2540283203125	394.4754943847657	89.74725341796875	592.3794555664062	422.8947448730469	84.92434692382812	591.55615234375	460.0794677734376	434.3191833496094	668.8099975585938	422.1269531250001	433.5595092773438	632.1294555664062	483.6213378906251	423.3724975585938	563.1272583007812	423.0844116210939	434.507080078125	634.1821899414062	441.5852355957032	92.98764038085938	363.6093444824219	377.5480041503906	97.02317810058594	419.1827697753906	396.7455139160156	92.02005767822266	317.5867309570312	391.9165649414062	109.4143829345703	366.5656433105469	339.0809326171875	426.3797912597656	372.5322570800781	363.6904296875	432.0390930175781	350.3939208984375	405.3237915039062	423.9782409667969	285.2429504394531	412.9778442382812	424.7125854492188	394.6265258789062	430.3599243164062	335.2581176757812	28.19152641296385	320.4434814453125	377.7919616699219	23.27510452270505	555.3536987304688	421.9366149902344	23.18631744384763	505.9903869628906	179.6861419677734	26.52857589721678	331.45751953125	118.1773071289062	22.27248191833493	562.0253295898438	76.24259948730469	21.01177406311032	505.9898986816406	1498.199584960938	615.0534667968751	-1841.729248046875	1584.32080078125	704.5256347656251	-1909.328247070312	1627.225952148438	662.8446655273439	-1802.6279296875	1628.122802734375	658.2892456054689	-1821.186401367188	nan	nan	nan	-3557.30126953125	994.5901489257812	673.4279174804689	-332.5274963378906	1653.73974609375	913.1002807617189	-3552.693359375	971.51904296875	669.3588867187501	nan	nan	nan	139.9405822753906	904.180419921875	454.0569152832032	375.4417419433594	892.3186645507812	458.2522888183594	145.1468963623047	461.24462890625	417.56591796875	243.9043121337891	466.9698791503906	432.2012329101562	364.2930908203125	458.4223022460938	433.39599609375	264.4142456054688	461.3103637695312	437.380859375	145.1470031738281	461.2449951171875	417.5660095214844	364.2929992675781	458.4219970703125	433.39599609375	222.9018707275391	8.879270553588846	356.7632751464844	373.1162414550781	18.65069007873533	337.549560546875	-0.8910641074180603	-0.7360233664512633	-1.482204556465149	0.4305067956447601	0.621381938457489	0.442964643239975	0.1000000014901161	0.1000000014901161	-0.1000000014901161	-0.0003714433405548334	-1.385730862617493	-0.02948204055428513	0.3783289194107056	0.02488431707024571	0.4605958759784698	0.1000000014901161	0.1000000014901161	-0.1000000014901161	-1.074023842811584	-0.6333903670310973	-1.399263858795166	0.4274997413158417	0.3360495567321777	0.3939966559410095	0.1000000014901161	0.1000000014901161	-0.1000000014901161	-0.07453515380620956	-1.900247931480408	-2.508870124816895	0.253430962562561	0.9918206334114075	0.3368212580680848	0.1000000014901161	0.1000000014901161	-0.1000000014901161	2.463818550109863	-2.241115093231201	0.2051000744104384	0.0941476970911026	0.5950119495391846	0.4053404033184053	0.1000000014901161	0.1000000014901161	-0.1000000014901161	-1.881709694862366	-0.02844636514782891	-2.469513893127441	0.1247020214796066	0.02327094599604604	0.4664909243583679	0.1000000014901161	0.1000000014901161	-0.1000000014901161	2.464661359786987	2.328939437866211	0.3344035744667055	0.09403792023658752	0.3667541146278381	0.3887165188789368	0.1000000014901161	0.1000000014901161	-0.1000000014901161	
160	1.59	306.5640563964844	1027.891967773438	345.7686767578126	225.9521942138672	1030.660278320312	348.4179077148439	227.8736419677734	916.6729125976562	316.3301086425782	297.5747375488281	917.21728515625	315.2221069335939	262.5	1423.444580078125	505.7265930175782	91.60295104980469	1441.402954101562	450.2508239746095	436.0715637207031	1465.7001953125	444.5220031738282	254.5062255859375	1491.531494140625	372.1281127929689	91.14818572998047	647.424560546875	398.5544738769532	101.315673828125	545.2387084960938	394.4701843261719	89.7276611328125	592.3548583984375	422.8858032226562	84.93531036376953	591.5443115234375	460.0784301757812	434.3218078613281	668.8090209960938	422.1312561035157	433.5408325195312	632.1126098632812	483.5802612304689	423.3947448730469	563.1582641601562	423.0675659179689	434.497802734375	634.1728515625	441.5457458496094	92.97675323486328	363.6258239746094	377.5460510253906	97.01975250244141	419.1794128417969	396.72802734375	92.04579925537109	317.5669555664062	391.9092407226562	109.4024810791016	366.5688781738281	339.0794067382812	426.3887634277344	372.524169921875	363.68212890625	432.045654296875	350.3905639648438	405.3038024902344	423.9905395507812	285.2347717285156	412.9637756347656	424.7151794433594	394.6190490722656	430.3569641113281	335.2596740722656	28.17310523986814	320.447509765625	377.8025207519531	23.27878952026363	555.3206787109375	421.9341125488281	23.18957901000974	505.9793701171875	179.7128295898438	26.53145790100096	331.47119140625	118.1955184936523	22.25930213928219	562.0128173828125	76.24855804443359	20.99754333496091	505.9893188476562	1498.12646484375	614.9483642578126	-1841.722900390625	1584.291381835938	704.5263061523439	-1909.338745117188	1627.265991210938	662.8437500000001	-1802.618530273438	1628.135986328125	658.3347167968751	-1821.14794921875	nan	nan	nan	nan	nan	nan	-332.0004577636719	1653.75927734375	912.7868041992189	nan	nan	nan	nan	nan	nan	139.9394989013672	904.1749267578125	454.0831909179689	375.408935546875	892.32421875	458.2771911621094	145.1346740722656	461.2447509765625	417.5376892089844	243.8955841064453	466.9825134277344	432.1444702148439	364.3070983886719	458.4114685058594	433.3529052734375	264.4270935058594	461.2872924804688	437.3171081542969	145.1349945068359	461.2449951171875	417.5379943847656	364.3070068359375	458.4110107421875	433.3529968261719	222.96337890625	8.899241447448709	356.745361328125	373.1343078613281	18.6406841278076	337.5259094238281	-0.890584409236908	-0.7362062335014342	-1.482311844825745	0.4305064380168915	0.6213826537132263	0.4429404139518738	0.1000000014901161	0.1000000014901161	-0.1000000014901161	-0.0003806278109550476	-1.385694265365601	-0.02936160936951645	0.378332108259201	0.02488049305975434	0.4605825543403625	0.1000000014901161	0.1000000014901161	-0.1000000014901161	-1.073910236358643	-0.6334095001220702	-1.399234056472778	0.4275089204311371	0.3360434174537659	0.3939844369888306	0.1000000014901161	0.1000000014901161	-0.1000000014901161	-0.07437637448310852	-1.900367617607117	-2.508783340454102	0.2534191906452179	0.991824209690094	0.3368467390537263	0.1000000014901161	0.1000000014901161	-0.1000000014901161	2.463727474212646	-2.241161584854126	0.204672336578369	0.0941389799118042	0.5950011610984802	0.4053389430046083	0.1000000014901161	0.1000000014901161	-0.1000000014901161	-1.881561279296875	-0.02845480479300007	-2.469512701034546	0.1247189790010452	0.02326276898384091	0.4664911329746246	0.1000000014901161	0.1000000014901161	-0.1000000014901161	2.464603662490845	2.32944655418396	0.3339052200317384	0.09404218941926956	0.3667523562908173	0.3887107670307159	0.1000000014901161	0.1000000014901161	-0.1000000014901161	
161	1.6	306.5904846191406	1027.893432617188	345.7807922363282	225.9562377929688	1030.664672851562	348.4269714355469	227.8749237060547	916.672607421875	316.3399353027344	297.5919189453125	917.209228515625	315.2406616210939	262.4958190917969	1423.457153320312	505.7816467285157	91.61111450195312	1441.417358398438	450.277313232422	436.0817260742188	1465.68505859375	444.5908813476563	254.5309448242188	1491.524536132812	372.1560668945313	91.14406585693359	647.4117431640625	398.5599365234376	101.3154907226562	545.2271118164062	394.4677124023439	89.73134613037109	592.3661499023438	422.9121704101562	84.89740753173828	591.527587890625	460.1117553710939	434.3276672363281	668.8013305664062	422.1280212402344	433.5523986816406	632.1233520507812	483.6054687500001	423.4322204589844	563.1224365234375	422.9341430664062	434.5029296875	634.1842651367188	441.5610351562501	92.98714447021484	363.6156005859375	377.5307922363281	97.02632904052734	419.1587524414062	396.72265625	92.10262298583984	317.5433654785156	391.9044799804688	109.4148788452148	366.5589904785156	339.0542907714844	426.3846435546875	372.5273742675781	363.6834716796875	432.0536193847656	350.390625	405.2752990722656	423.9970397949219	285.2132263183594	412.9527282714844	424.7346801757812	394.6242065429688	430.3460083007812	335.2549743652344	28.16399192810057	320.4292602539062	377.7898559570312	23.2605819702148	555.3359375	421.9398193359375	23.1737251281738	505.9783020019531	179.7007141113281	26.51575469970701	331.4764404296875	118.184684753418	22.24172592163082	562.0162353515625	76.24636077880859	20.9969501495361	505.9793090820312	1498.15283203125	615.0041503906251	-1841.727905273438	1584.311157226562	704.5515747070314	-1909.337158203125	1627.2880859375	662.8610839843751	-1802.605834960938	1628.126586914062	658.2836303710939	-1821.1796875	1493.348999023438	601.9264526367189	-1874.373901367188	nan	nan	nan	-332.13720703125	1653.731689453125	912.8850708007814	nan	nan	nan	nan	nan	nan	139.9239959716797	904.177490234375	454.1149291992189	375.3630676269531	892.3029174804688	458.3805847167969	145.1266479492188	461.2447814941406	417.537109375	243.8860626220703	467.0069274902344	432.1444396972657	364.3594360351562	458.4007263183594	433.271240234375	264.4791870117188	461.2618408203125	437.2399597167969	145.1269989013672	461.2449951171875	417.5369873046875	364.3590087890625	458.4010009765625	433.27099609375	223.0511169433594	8.906552314758279	356.7066650390625	373.1150512695312	18.63755989074705	337.5188293457031	-0.8895730972290039	-0.7358857989311217	-1.482356309890747	0.4305224716663361	0.6213766932487488	0.4429134726524354	0.1000000014901161	0.1000000014901161	-0.1000000014901161	-0.0003400758432690054	-1.38572371006012	-0.02937883697450169	0.3783282339572906	0.02486610226333138	0.4605812132358551	0.1000000014901161	0.1000000014901161	-0.1000000014901161	-1.074129819869995	-0.6330713033676146	-1.399068593978882	0.427512139081955	0.3360406160354614	0.3939710557460785	0.1000000014901161	0.1000000014901161	-0.1000000014901161	-0.07434619218111038	-1.900488972663879	-2.508824110031128	0.2534323334693909	0.9918246269226074	0.3368573486804963	0.1000000014901161	0.1000000014901161	-0.1000000014901161	2.463975191116333	-2.241340637207031	0.2051224708557128	0.09413497895002365	0.5949947237968445	0.4053556323051454	0.1000000014901161	0.1000000014901161	-0.1000000014901161	-1.881665229797363	-0.02808769047260269	-2.469655752182007	0.1247105896472931	0.02325147762894627	0.4664906859397888	0.1000000014901161	0.1000000014901161	-0.1000000014901161	2.464396715164185	2.330260276794434	0.3333737850189211	0.09406878799200058	0.3667339086532593	0.3886997401714325	0.1000000014901161	0.1000000014901161	-0.1000000014901161	
162	1.61	306.5674133300781	1027.899169921875	345.8141479492189	225.9347991943359	1030.677490234375	348.4533386230469	227.8591918945312	916.6885986328125	316.3623046875001	297.57763671875	917.215576171875	315.2624511718751	262.5178527832031	1423.466186523438	505.8563537597657	91.62964630126953	1441.425537109375	450.2999877929689	436.0627746582031	1465.688842773438	444.6058654785157	254.5656280517578	1491.525756835938	372.180145263672	91.13406372070312	647.42138671875	398.5722656250001	101.3247146606445	545.2312622070312	394.4617309570312	89.73499298095703	592.3413696289062	422.9203796386719	84.94692230224609	591.5130615234375	460.0930480957032	434.3276977539062	668.7991333007812	422.1389770507812	433.5479431152344	632.1203002929688	483.5782470703126	423.4254760742188	563.1231079101562	422.9604797363282	434.4811401367188	634.1658935546875	441.5507202148439	92.98351287841797	363.6304016113281	377.5171203613281	97.02511596679688	419.1783447265625	396.7140808105469	92.09073638916016	317.5584411621094	391.8558044433594	109.412483215332	366.5652160644531	339.0464172363281	426.4010314941406	372.5377807617188	363.6881408691406	432.0531311035156	350.3877258300781	405.28369140625	423.9935302734375	285.2201232910156	412.9270324707031	424.7193908691406	394.6207885742188	430.3423156738281	335.2523498535156	28.17843437194822	320.4004211425781	377.7893371582031	23.26053237915036	555.3434448242188	421.9452514648438	23.17205429077145	505.9768676757812	179.7006378173828	26.51425361633299	331.4671325683594	118.1779708862305	22.24711799621578	562.0028076171875	76.24188995361328	20.9957466125488	505.9883422851562	1498.164184570312	615.0112915039064	-1841.7333984375	1584.330200195312	704.5438842773439	-1909.3486328125	nan	nan	nan	1628.118530273438	658.2505493164064	-1821.203735351562	nan	nan	nan	-3557.354736328125	994.534423828125	673.3876342773439	-332.6028747558594	1653.777954101562	913.1738281250001	-3552.747314453125	971.490966796875	669.4828491210939	nan	nan	nan	139.8931884765625	904.1776733398438	454.1347961425782	375.3504638671875	892.3032836914062	458.3749084472657	145.1488037109375	461.2462463378906	417.5114135742188	243.9115295410156	467.009033203125	432.0960388183594	364.3419799804688	458.3953247070312	433.2794799804688	264.4608459472656	461.2557373046875	437.2257080078125	145.1490020751953	461.2460021972656	417.510986328125	364.3420104980469	458.3949890136719	433.2789916992188	223.0230255126953	8.909216880798319	356.6658935546875	373.1377868652344	18.65094566345213	337.4632873535156	-0.8897430896759033	-0.7359699606895446	-1.482330322265625	0.4305141270160675	0.6213710904121399	0.4429139494895936	0.1000000014901161	0.1000000014901161	-0.1000000014901161	-0.0003635908069554716	-1.385739803314209	-0.029480416327715	0.3783290088176727	0.02487034164369103	0.4605736136436462	0.1000000014901161	0.1000000014901161	-0.1000000014901161	-1.073622822761536	-0.6332761645317077	-1.399391412734985	0.4275163412094116	0.3360453844070435	0.3939640820026398	0.1000000014901161	0.1000000014901161	-0.1000000014901161	-0.07425617426633835	-1.900436162948608	-2.508927583694458	0.2534133791923523	0.9918345212936401	0.3368836939334869	0.1000000014901161	0.1000000014901161	-0.1000000014901161	2.464015245437622	-2.240973949432373	0.2040409594774245	0.09413893520832062	0.5949915647506714	0.405353218317032	0.1000000014901161	0.1000000014901161	-0.1000000014901161	-1.881643295288086	-0.02823214605450615	-2.469627618789673	0.1247068420052528	0.02325237356126305	0.4664860963821411	0.1000000014901161	0.1000000014901161	-0.1000000014901161	2.464519023895264	2.330100774765015	0.333882123231888	0.09406188875436783	0.36674565076828	0.3886793553829193	0.1000000014901161	0.1000000014901161	-0.1000000014901161	
